<svg xmlns="http://www.w3.org/2000/svg" width="448" height="339" style="
        width:448px;
        height:339px;
        background: transparent;
        fill: none;
">
        
        <svg xmlns="http://www.w3.org/2000/svg"><g class="shapes-region" style="stroke: black; fill: none;"><g class="composite-shape"><path class="real" d=" M13,12 L83,12 L83,52 L13,52 Z" style="stroke-width: 1; stroke: rgb(0, 0, 0); fill: none;"/></g><g class="composite-shape"><path class="real" d=" M105,12 L175,12 L175,52 L105,52 Z" style="stroke-width: 1; stroke: rgb(0, 0, 0); fill: none;"/></g><g class="composite-shape"><path class="real" d=" M194,12 L264,12 L264,52 L194,52 Z" style="stroke-width: 1; stroke: rgb(0, 0, 0); fill: none;"/></g><g class="composite-shape"><path class="real" d=" M284,11.5 L354,11.5 L354,51.5 L284,51.5 Z" style="stroke-width: 1; stroke: rgb(0, 0, 0); fill: none;"/></g><g class="composite-shape"><path class="real" d=" M375,11.5 L445,11.5 L445,51.5 L375,51.5 Z" style="stroke-width: 1; stroke: rgb(0, 0, 0); fill: none;"/></g><g class="composite-shape"><path class="real" d=" M211,119.17 C211,110.88 217.72,104.17 226,104.17 C234.28,104.17 241,110.88 241,119.17 C241,127.45 234.28,134.17 226,134.17 C217.72,134.17 211,127.45 211,119.17 Z" style="stroke-width: 1; stroke: rgb(0, 0, 0); fill: none;"/><path class="real" d=" M211,119.17 L241,119.17" style="stroke-width: 1; stroke: rgb(0, 0, 0); fill: none;"/><path class="real" d=" M226,104.17 L226,134.17" style="stroke-width: 1; stroke: rgb(0, 0, 0); fill: none;"/></g><g class="arrow-line"><path class="connection real" stroke-dasharray="" d="  M47.17,52 L225,88" style="stroke: rgb(0, 0, 0); stroke-width: 1; fill: none;"/></g><g class="arrow-line"><path class="connection real" stroke-dasharray="" d="  M139.83,52 L225,88" style="stroke: rgb(0, 0, 0); stroke-width: 1; fill: none;"/></g><g class="arrow-line"><path class="connection real" stroke-dasharray="" d="  M225,88 L318.83,52.33" style="stroke: rgb(0, 0, 0); stroke-width: 1; fill: none;"/></g><g class="arrow-line"><path class="connection real" stroke-dasharray="" d="  M408.83,51.67 L225,88" style="stroke: rgb(0, 0, 0); stroke-width: 1; fill: none;"/></g><g class="composite-shape"><path class="real" d=" M199.6,142.8 L225.6,142.8 L225.6,171.8 L199.6,171.8 Z" style="stroke-width: 1; stroke: rgb(0, 0, 0); fill: none;"/></g><g class="composite-shape"><path class="real" d=" M226.27,142.8 L252.27,142.8 L252.27,171.8 L226.27,171.8 Z" style="stroke-width: 1; stroke: rgb(0, 0, 0); fill: none;"/></g><g class="composite-shape"><path class="real" d=" M251.6,142.8 L277.6,142.8 L277.6,171.8 L251.6,171.8 Z" style="stroke-width: 1; stroke: rgb(0, 0, 0); fill: none;"/></g><g class="composite-shape"><path class="real" d=" M278.6,142.8 L304.6,142.8 L304.6,171.8 L278.6,171.8 Z" style="stroke-width: 1; stroke: rgb(0, 0, 0); fill: none;"/></g><g class="composite-shape"><path class="real" d=" M305.27,142.8 L331.27,142.8 L331.27,171.8 L305.27,171.8 Z" style="stroke-width: 1; stroke: rgb(0, 0, 0); fill: none;"/></g><g class="arrow-line"><path class="connection real" stroke-dasharray="" d="  M278.6,119 L278.6,140.8" style="stroke: rgb(0, 0, 0); stroke-width: 1; fill: none;"/><g stroke="#000" transform="matrix(-1.8369701987210297e-16,-1,1,-1.8369701987210297e-16,278.6,142.8)" style="stroke: rgb(0, 0, 0); stroke-width: 1;"><path d=" M10.93,-3.29 Q4.96,-0.45 0,0 Q4.96,0.45 10.93,3.29"/></g></g><g class="composite-shape"><path class="real" d=" M222,208 L344,208 L344,263 L222,263 Z" style="stroke-width: 1; stroke: rgb(0, 0, 0); fill: none;"/><path class="real" d=" M237.25,208 L237.25,263" style="stroke-width: 1; stroke: rgb(0, 0, 0); fill: none;"/><path class="real" d=" M328.75,208 L328.75,263" style="stroke-width: 1; stroke: rgb(0, 0, 0); fill: none;"/></g><g class="arrow-line"><path class="connection real" stroke-dasharray="" d="  M198.89,233.8 L219.6,233.8" style="stroke: rgb(0, 0, 0); stroke-width: 1; fill: none;"/><g stroke="#000" transform="matrix(-1,1.2246467991473532e-16,-1.2246467991473532e-16,-1,221.6,233.80000000000004)" style="stroke: rgb(0, 0, 0); stroke-width: 1;"><path d=" M10.93,-3.29 Q4.96,-0.45 0,0 Q4.96,0.45 10.93,3.29"/></g></g><g class="composite-shape"><path class="real" d=" M331.27,142.8 L357.27,142.8 L357.27,171.8 L331.27,171.8 Z" style="stroke-width: 1; stroke: rgb(0, 0, 0); fill: none;"/></g><g class="composite-shape"><path class="real" d=" M228.6,295.8 L254.6,295.8 L254.6,324.8 L228.6,324.8 Z" style="stroke-width: 1; stroke: rgb(0, 0, 0); fill: none;"/></g><g class="composite-shape"><path class="real" d=" M255.27,295.8 L281.27,295.8 L281.27,324.8 L255.27,324.8 Z" style="stroke-width: 1; stroke: rgb(0, 0, 0); fill: none;"/></g><g class="composite-shape"><path class="real" d=" M280.6,295.8 L306.6,295.8 L306.6,324.8 L280.6,324.8 Z" style="stroke-width: 1; stroke: rgb(0, 0, 0); fill: none;"/></g><g class="composite-shape"><path class="real" d=" M307.6,295.8 L333.6,295.8 L333.6,324.8 L307.6,324.8 Z" style="stroke-width: 1; stroke: rgb(0, 0, 0); fill: none;"/></g><g class="arrow-line"><path class="connection real" stroke-dasharray="" d="  M281.27,274.8 L281.27,293.8" style="stroke: rgb(0, 0, 0); stroke-width: 1; fill: none;"/><g stroke="#000" transform="matrix(-1.8369701987210297e-16,-1,1,-1.8369701987210297e-16,281.26666666666665,295.8)" style="stroke: rgb(0, 0, 0); stroke-width: 1;"><path d=" M10.93,-3.29 Q4.96,-0.45 0,0 Q4.96,0.45 10.93,3.29"/></g></g><g class="arrow-line"><path class="connection real" stroke-dasharray="" d="  M281.27,274.8 L354.38,274.8" style="stroke: rgb(0, 0, 0); stroke-width: 1; fill: none;"/></g><g class="arrow-line"><path class="connection real" stroke-dasharray="" d="  M354.38,239.99 L354.38,274.8" style="stroke: rgb(0, 0, 0); stroke-width: 1; fill: none;"/></g><g class="arrow-line"><path class="connection real" stroke-dasharray="" d="  M343.8,240 L354.38,239.99" style="stroke: rgb(0, 0, 0); stroke-width: 1; fill: none;"/></g><g class="arrow-line"><path class="connection real" stroke-dasharray="" d="  M198.89,192.96 L198.89,233.8" style="stroke: rgb(0, 0, 0); stroke-width: 1; fill: none;"/></g><g class="arrow-line"><path class="connection real" stroke-dasharray="" d="  M198.89,192.96 L278.6,193.32" style="stroke: rgb(0, 0, 0); stroke-width: 1; fill: none;"/></g><g class="arrow-line"><path class="connection real" stroke-dasharray="" d="  M278.6,171.8 L278.6,193.32" style="stroke: rgb(0, 0, 0); stroke-width: 1; fill: none;"/></g><g class="arrow-line"><path class="connection real" stroke-dasharray="" d="  M225,51.96 L225.96,100" style="stroke: rgb(0, 0, 0); stroke-width: 1; fill: none;"/><g stroke="#000" transform="matrix(-0.01989544070827747,-0.9998020661306034,0.9998020661306034,-0.01989544070827747,226,102)" style="stroke: rgb(0, 0, 0); stroke-width: 1;"><path d=" M10.93,-3.29 Q4.96,-0.45 0,0 Q4.96,0.45 10.93,3.29"/></g></g><g class="arrow-line"><path class="connection real" stroke-dasharray="" d="  M241.11,119 L278.6,119" style="stroke: rgb(0, 0, 0); stroke-width: 1; fill: none;"/></g><g class="intersections-group"><g style="stroke: rgb(0, 0, 0); stroke-width: 1; fill: none;"/></g></g><g/><g/><!-- react-empty: 45042 --></svg>
        <svg xmlns="http://www.w3.org/2000/svg" width="446" height="337" style="width:446px;height:337px;font-family:Asana-Math, Asana;background:transparent;"><g><g><g><g><g><g style="transform:matrix(1,0,0,1,24.203125,37.2578125);"><path d="M349 664L352 692L238 689C222 689 204 689 161 690L97 692L94 664L141 662C165 661 176 653 176 635L81 55C77 37 65 30 21 23L16 -3L57 -2C88 -1 150 0 170 0L467 -1L500 0C499 25 510 103 523 165L492 165L475 103C466 71 457 54 448 49C435 44 371 39 304 39C255 39 228 40 162 46C165 64 256 605 256 613C263 651 270 658 307 661ZM841 646L947 650C1009 650 1049 641 1050 626L1058 537L1082 537C1085 600 1092 651 1103 689C1081 691 1053 692 1036 692L995 691L830 689L801 689C776 689 736 690 698 691L649 692L646 664L702 662C726 661 737 652 737 635C737 621 733 589 728 559L653 125C636 33 636 32 595 28L559 25L555 -3L589 -2C629 -1 661 0 682 0C700 0 729 -1 768 -2L820 -3L823 25L759 28C732 29 723 37 723 57C723 63 724 74 725 78L761 301L878 301C905 301 936 300 984 298L1010 297L1029 342L1025 349C944 345 884 343 806 343L769 343L815 614C818 630 819 635 824 646ZM1218 471C1218 386 1256 339 1340 319L1435 296C1489 283 1516 248 1516 191C1516 96 1445 30 1342 30C1288 30 1250 42 1206 73L1206 172L1176 172C1170 117 1163 72 1152 20C1201 -5 1254 -18 1307 -18C1462 -18 1595 99 1595 234C1595 313 1552 355 1451 377L1386 391C1320 405 1290 442 1290 508C1290 595 1357 658 1449 658C1498 658 1531 645 1561 613L1561 537L1591 537C1595 591 1602 629 1616 672C1571 696 1531 706 1484 706C1360 706 1218 614 1218 471ZM1770 664L1826 662C1850 661 1861 653 1861 635C1861 621 1857 589 1852 559L1777 125C1761 34 1759 32 1719 28L1678 25L1674 -3L1716 -2C1763 0 1782 0 1806 0L1903 -3L1929 -3L1932 25L1883 28C1856 30 1847 38 1847 58C1847 67 1848 76 1851 93L1952 648C1981 654 2001 656 2028 656C2115 656 2161 617 2161 543C2161 448 2083 378 1979 378L1935 378L1932 367C2066 172 2097 124 2172 -3L2257 0C2258 0 2272 -1 2291 -3L2304 -3L2304 24C2264 29 2253 37 2224 79L2040 354C2095 364 2124 376 2160 402C2218 444 2249 499 2249 560C2249 646 2185 693 2074 691L1773 691Z" stroke="rgb(0, 0, 0)" stroke-width="8" fill="rgb(0, 0, 0)" style="transform:matrix(0.017,0,0,-0.017,0,0);"></path></g><g><g><g><g style="transform:matrix(1,0,0,1,63.828125,42.6421875);"><path d="M418 -3L418 27L366 30C311 33 301 44 301 96L301 700L60 598L67 548L217 614L217 96C217 44 206 33 152 30L96 27L96 -3C250 0 250 0 261 0C292 0 402 -3 418 -3Z" stroke="rgb(0, 0, 0)" stroke-width="8" fill="rgb(0, 0, 0)" style="transform:matrix(0.0119,0,0,-0.0119,0,0);"></path></g></g></g></g></g></g></g></g></g><g><g><g><g><g><g style="transform:matrix(1,0,0,1,116.203125,37.2578125);"><path d="M349 664L352 692L238 689C222 689 204 689 161 690L97 692L94 664L141 662C165 661 176 653 176 635L81 55C77 37 65 30 21 23L16 -3L57 -2C88 -1 150 0 170 0L467 -1L500 0C499 25 510 103 523 165L492 165L475 103C466 71 457 54 448 49C435 44 371 39 304 39C255 39 228 40 162 46C165 64 256 605 256 613C263 651 270 658 307 661ZM841 646L947 650C1009 650 1049 641 1050 626L1058 537L1082 537C1085 600 1092 651 1103 689C1081 691 1053 692 1036 692L995 691L830 689L801 689C776 689 736 690 698 691L649 692L646 664L702 662C726 661 737 652 737 635C737 621 733 589 728 559L653 125C636 33 636 32 595 28L559 25L555 -3L589 -2C629 -1 661 0 682 0C700 0 729 -1 768 -2L820 -3L823 25L759 28C732 29 723 37 723 57C723 63 724 74 725 78L761 301L878 301C905 301 936 300 984 298L1010 297L1029 342L1025 349C944 345 884 343 806 343L769 343L815 614C818 630 819 635 824 646ZM1218 471C1218 386 1256 339 1340 319L1435 296C1489 283 1516 248 1516 191C1516 96 1445 30 1342 30C1288 30 1250 42 1206 73L1206 172L1176 172C1170 117 1163 72 1152 20C1201 -5 1254 -18 1307 -18C1462 -18 1595 99 1595 234C1595 313 1552 355 1451 377L1386 391C1320 405 1290 442 1290 508C1290 595 1357 658 1449 658C1498 658 1531 645 1561 613L1561 537L1591 537C1595 591 1602 629 1616 672C1571 696 1531 706 1484 706C1360 706 1218 614 1218 471ZM1770 664L1826 662C1850 661 1861 653 1861 635C1861 621 1857 589 1852 559L1777 125C1761 34 1759 32 1719 28L1678 25L1674 -3L1716 -2C1763 0 1782 0 1806 0L1903 -3L1929 -3L1932 25L1883 28C1856 30 1847 38 1847 58C1847 67 1848 76 1851 93L1952 648C1981 654 2001 656 2028 656C2115 656 2161 617 2161 543C2161 448 2083 378 1979 378L1935 378L1932 367C2066 172 2097 124 2172 -3L2257 0C2258 0 2272 -1 2291 -3L2304 -3L2304 24C2264 29 2253 37 2224 79L2040 354C2095 364 2124 376 2160 402C2218 444 2249 499 2249 560C2249 646 2185 693 2074 691L1773 691Z" stroke="rgb(0, 0, 0)" stroke-width="8" fill="rgb(0, 0, 0)" style="transform:matrix(0.017,0,0,-0.017,0,0);"></path></g><g><g><g><g style="transform:matrix(1,0,0,1,155.828125,42.6421875);"><path d="M16 23L16 -3C203 -3 203 0 239 0C275 0 275 -3 468 -3L468 82C353 77 307 81 122 77L304 270C401 373 431 428 431 503C431 618 353 689 226 689C154 689 105 669 56 619L39 483L68 483L81 529C97 587 133 612 200 612C286 612 341 558 341 473C341 398 299 324 186 204Z" stroke="rgb(0, 0, 0)" stroke-width="8" fill="rgb(0, 0, 0)" style="transform:matrix(0.0119,0,0,-0.0119,0,0);"></path></g></g></g></g></g></g></g></g></g><g><g><g><g><g><g style="transform:matrix(1,0,0,1,205.203125,37.2578125);"><path d="M349 664L352 692L238 689C222 689 204 689 161 690L97 692L94 664L141 662C165 661 176 653 176 635L81 55C77 37 65 30 21 23L16 -3L57 -2C88 -1 150 0 170 0L467 -1L500 0C499 25 510 103 523 165L492 165L475 103C466 71 457 54 448 49C435 44 371 39 304 39C255 39 228 40 162 46C165 64 256 605 256 613C263 651 270 658 307 661ZM841 646L947 650C1009 650 1049 641 1050 626L1058 537L1082 537C1085 600 1092 651 1103 689C1081 691 1053 692 1036 692L995 691L830 689L801 689C776 689 736 690 698 691L649 692L646 664L702 662C726 661 737 652 737 635C737 621 733 589 728 559L653 125C636 33 636 32 595 28L559 25L555 -3L589 -2C629 -1 661 0 682 0C700 0 729 -1 768 -2L820 -3L823 25L759 28C732 29 723 37 723 57C723 63 724 74 725 78L761 301L878 301C905 301 936 300 984 298L1010 297L1029 342L1025 349C944 345 884 343 806 343L769 343L815 614C818 630 819 635 824 646ZM1218 471C1218 386 1256 339 1340 319L1435 296C1489 283 1516 248 1516 191C1516 96 1445 30 1342 30C1288 30 1250 42 1206 73L1206 172L1176 172C1170 117 1163 72 1152 20C1201 -5 1254 -18 1307 -18C1462 -18 1595 99 1595 234C1595 313 1552 355 1451 377L1386 391C1320 405 1290 442 1290 508C1290 595 1357 658 1449 658C1498 658 1531 645 1561 613L1561 537L1591 537C1595 591 1602 629 1616 672C1571 696 1531 706 1484 706C1360 706 1218 614 1218 471ZM1770 664L1826 662C1850 661 1861 653 1861 635C1861 621 1857 589 1852 559L1777 125C1761 34 1759 32 1719 28L1678 25L1674 -3L1716 -2C1763 0 1782 0 1806 0L1903 -3L1929 -3L1932 25L1883 28C1856 30 1847 38 1847 58C1847 67 1848 76 1851 93L1952 648C1981 654 2001 656 2028 656C2115 656 2161 617 2161 543C2161 448 2083 378 1979 378L1935 378L1932 367C2066 172 2097 124 2172 -3L2257 0C2258 0 2272 -1 2291 -3L2304 -3L2304 24C2264 29 2253 37 2224 79L2040 354C2095 364 2124 376 2160 402C2218 444 2249 499 2249 560C2249 646 2185 693 2074 691L1773 691Z" stroke="rgb(0, 0, 0)" stroke-width="8" fill="rgb(0, 0, 0)" style="transform:matrix(0.017,0,0,-0.017,0,0);"></path></g><g><g><g><g style="transform:matrix(1,0,0,1,244.828125,42.6421875);"><path d="M462 224C462 345 355 366 308 374C388 436 418 482 418 541C418 630 344 689 233 689C165 689 120 670 72 622L43 498L74 498L92 554C103 588 166 622 218 622C283 622 336 569 336 506C336 431 277 368 206 368C198 368 187 369 174 370L159 371L147 318L154 312C192 329 211 334 238 334C321 334 369 281 369 190C369 88 308 21 215 21C169 21 128 36 98 64C74 86 61 109 42 163L15 153C36 92 44 56 50 6C103 -12 147 -20 184 -20C307 -20 462 87 462 224Z" stroke="rgb(0, 0, 0)" stroke-width="8" fill="rgb(0, 0, 0)" style="transform:matrix(0.0119,0,0,-0.0119,0,0);"></path></g></g></g></g></g></g></g></g></g><g><g><g><g><g><g style="transform:matrix(1,0,0,1,295.203125,36.7578125);"><path d="M349 664L352 692L238 689C222 689 204 689 161 690L97 692L94 664L141 662C165 661 176 653 176 635L81 55C77 37 65 30 21 23L16 -3L57 -2C88 -1 150 0 170 0L467 -1L500 0C499 25 510 103 523 165L492 165L475 103C466 71 457 54 448 49C435 44 371 39 304 39C255 39 228 40 162 46C165 64 256 605 256 613C263 651 270 658 307 661ZM841 646L947 650C1009 650 1049 641 1050 626L1058 537L1082 537C1085 600 1092 651 1103 689C1081 691 1053 692 1036 692L995 691L830 689L801 689C776 689 736 690 698 691L649 692L646 664L702 662C726 661 737 652 737 635C737 621 733 589 728 559L653 125C636 33 636 32 595 28L559 25L555 -3L589 -2C629 -1 661 0 682 0C700 0 729 -1 768 -2L820 -3L823 25L759 28C732 29 723 37 723 57C723 63 724 74 725 78L761 301L878 301C905 301 936 300 984 298L1010 297L1029 342L1025 349C944 345 884 343 806 343L769 343L815 614C818 630 819 635 824 646ZM1218 471C1218 386 1256 339 1340 319L1435 296C1489 283 1516 248 1516 191C1516 96 1445 30 1342 30C1288 30 1250 42 1206 73L1206 172L1176 172C1170 117 1163 72 1152 20C1201 -5 1254 -18 1307 -18C1462 -18 1595 99 1595 234C1595 313 1552 355 1451 377L1386 391C1320 405 1290 442 1290 508C1290 595 1357 658 1449 658C1498 658 1531 645 1561 613L1561 537L1591 537C1595 591 1602 629 1616 672C1571 696 1531 706 1484 706C1360 706 1218 614 1218 471ZM1770 664L1826 662C1850 661 1861 653 1861 635C1861 621 1857 589 1852 559L1777 125C1761 34 1759 32 1719 28L1678 25L1674 -3L1716 -2C1763 0 1782 0 1806 0L1903 -3L1929 -3L1932 25L1883 28C1856 30 1847 38 1847 58C1847 67 1848 76 1851 93L1952 648C1981 654 2001 656 2028 656C2115 656 2161 617 2161 543C2161 448 2083 378 1979 378L1935 378L1932 367C2066 172 2097 124 2172 -3L2257 0C2258 0 2272 -1 2291 -3L2304 -3L2304 24C2264 29 2253 37 2224 79L2040 354C2095 364 2124 376 2160 402C2218 444 2249 499 2249 560C2249 646 2185 693 2074 691L1773 691Z" stroke="rgb(0, 0, 0)" stroke-width="8" fill="rgb(0, 0, 0)" style="transform:matrix(0.017,0,0,-0.017,0,0);"></path></g><g><g><g><g style="transform:matrix(1,0,0,1,334.828125,42.1421875);"><path d="M280 181L280 106C280 46 269 32 220 30L158 27L158 -3C291 0 291 0 315 0C339 0 339 0 472 -3L472 27L424 30C375 33 364 46 364 106L364 181C423 181 444 180 472 177L472 248L364 245L365 697L285 667L2 204L2 181ZM280 245L65 245L280 597Z" stroke="rgb(0, 0, 0)" stroke-width="8" fill="rgb(0, 0, 0)" style="transform:matrix(0.0119,0,0,-0.0119,0,0);"></path></g></g></g></g></g></g></g></g></g><g><g><g><g><g><g style="transform:matrix(1,0,0,1,387.203125,36.7578125);"><path d="M349 664L352 692L238 689C222 689 204 689 161 690L97 692L94 664L141 662C165 661 176 653 176 635L81 55C77 37 65 30 21 23L16 -3L57 -2C88 -1 150 0 170 0L467 -1L500 0C499 25 510 103 523 165L492 165L475 103C466 71 457 54 448 49C435 44 371 39 304 39C255 39 228 40 162 46C165 64 256 605 256 613C263 651 270 658 307 661ZM841 646L947 650C1009 650 1049 641 1050 626L1058 537L1082 537C1085 600 1092 651 1103 689C1081 691 1053 692 1036 692L995 691L830 689L801 689C776 689 736 690 698 691L649 692L646 664L702 662C726 661 737 652 737 635C737 621 733 589 728 559L653 125C636 33 636 32 595 28L559 25L555 -3L589 -2C629 -1 661 0 682 0C700 0 729 -1 768 -2L820 -3L823 25L759 28C732 29 723 37 723 57C723 63 724 74 725 78L761 301L878 301C905 301 936 300 984 298L1010 297L1029 342L1025 349C944 345 884 343 806 343L769 343L815 614C818 630 819 635 824 646ZM1218 471C1218 386 1256 339 1340 319L1435 296C1489 283 1516 248 1516 191C1516 96 1445 30 1342 30C1288 30 1250 42 1206 73L1206 172L1176 172C1170 117 1163 72 1152 20C1201 -5 1254 -18 1307 -18C1462 -18 1595 99 1595 234C1595 313 1552 355 1451 377L1386 391C1320 405 1290 442 1290 508C1290 595 1357 658 1449 658C1498 658 1531 645 1561 613L1561 537L1591 537C1595 591 1602 629 1616 672C1571 696 1531 706 1484 706C1360 706 1218 614 1218 471ZM1770 664L1826 662C1850 661 1861 653 1861 635C1861 621 1857 589 1852 559L1777 125C1761 34 1759 32 1719 28L1678 25L1674 -3L1716 -2C1763 0 1782 0 1806 0L1903 -3L1929 -3L1932 25L1883 28C1856 30 1847 38 1847 58C1847 67 1848 76 1851 93L1952 648C1981 654 2001 656 2028 656C2115 656 2161 617 2161 543C2161 448 2083 378 1979 378L1935 378L1932 367C2066 172 2097 124 2172 -3L2257 0C2258 0 2272 -1 2291 -3L2304 -3L2304 24C2264 29 2253 37 2224 79L2040 354C2095 364 2124 376 2160 402C2218 444 2249 499 2249 560C2249 646 2185 693 2074 691L1773 691Z" stroke="rgb(0, 0, 0)" stroke-width="8" fill="rgb(0, 0, 0)" style="transform:matrix(0.017,0,0,-0.017,0,0);"></path></g><g><g><g><g style="transform:matrix(1,0,0,1,426.828125,42.1421875);"><path d="M459 253C459 366 378 446 264 446C216 446 180 443 127 396L127 605L432 604L432 689L75 690L75 322L95 316C142 363 169 377 218 377C314 377 374 309 374 201C374 90 310 25 201 25C147 25 97 43 83 69L37 151L13 137C36 80 48 48 62 4C90 -11 130 -20 173 -20C301 -20 459 89 459 253Z" stroke="rgb(0, 0, 0)" stroke-width="8" fill="rgb(0, 0, 0)" style="transform:matrix(0.0119,0,0,-0.0119,0,0);"></path></g></g></g></g></g></g></g></g></g><g><g><g><g><g><g style="transform:matrix(1,0,0,1,272.53125,111);"><path d="M611 37L376 271L611 505L568 547L335 313L101 547L59 505L293 271L59 37L101 -5L335 229L568 -5Z" stroke="rgb(0, 0, 0)" stroke-width="8" fill="rgb(0, 0, 0)" style="transform:matrix(0.017,0,0,-0.017,0,0);"></path></g><g style="transform:matrix(1,0,0,1,286.53125,111);"><path d="M131 331C152 512 241 611 421 665L379 689C283 657 242 637 191 593C88 506 32 384 32 247C32 82 112 -20 241 -20C371 -20 468 83 468 219C468 334 399 409 293 409C216 409 184 370 131 331ZM255 349C331 349 382 283 382 184C382 80 331 13 254 13C169 13 123 86 123 220C123 255 127 274 138 291C160 325 207 349 255 349ZM1116 365C1119 403 1124 435 1132 476C1121 481 1117 482 1112 482C1081 482 1050 458 1014 407C975 351 936 291 920 256L952 408C956 425 958 438 958 450C958 470 950 482 935 482C914 482 876 461 802 408L774 388L781 368L813 389C841 407 852 412 861 412C871 412 878 403 878 390C878 332 835 126 795 -2L805 -9C820 -4 836 -1 859 4L872 6L898 126C916 209 939 262 983 319C1017 363 1044 384 1066 384C1081 384 1091 379 1102 365ZM1153 152C1153 46 1198 -11 1281 -11C1336 -11 1396 15 1441 57C1503 116 1547 230 1547 331C1547 425 1497 482 1414 482C1310 482 1153 382 1153 152ZM1377 444C1438 444 1471 399 1471 315C1471 219 1440 113 1396 60C1378 39 1352 27 1321 27C1263 27 1229 72 1229 151C1229 264 1268 387 1317 427C1330 438 1353 444 1377 444ZM2071 473L2064 482L1996 465L1986 414C1971 336 1946 268 1915 221C1856 130 1778 59 1738 59C1730 59 1725 68 1725 85C1725 99 1727 112 1732 137L1789 408C1792 424 1794 438 1794 451C1794 470 1785 482 1771 482C1751 482 1713 461 1639 408L1611 388L1618 368L1650 389C1678 407 1689 412 1698 412C1707 412 1715 403 1715 392C1715 388 1714 378 1713 374L1650 77C1648 68 1646 44 1646 30C1646 7 1661 -11 1681 -11C1744 -11 1865 101 1949 239L1912 97C1905 73 1901 46 1901 31C1901 6 1912 -9 1931 -9C1957 -9 1993 12 2091 85L2081 103L2055 86C2031 70 2005 59 1994 59C1986 59 1981 66 1981 76C1981 112 2056 416 2071 473ZM2158 388L2165 368L2197 389C2234 412 2237 414 2244 414C2255 414 2262 404 2262 389C2262 338 2221 145 2180 2L2187 -9C2212 -2 2235 4 2257 8C2276 134 2297 199 2343 268C2397 352 2472 414 2517 414C2528 414 2534 405 2534 390C2534 372 2531 351 2523 319L2471 107C2462 70 2458 47 2458 31C2458 6 2469 -9 2488 -9C2514 -9 2550 12 2648 85L2638 103L2612 86C2583 67 2561 56 2551 56C2544 56 2538 65 2538 76C2538 81 2539 92 2540 96L2606 372C2613 401 2617 429 2617 446C2617 469 2606 482 2586 482C2544 482 2475 444 2416 389C2378 354 2350 320 2298 247L2336 408C2340 426 2342 438 2342 449C2342 470 2334 482 2319 482C2298 482 2259 460 2186 408ZM3172 722L3160 733C3108 707 3072 698 3000 691L2996 670L3044 670C3068 670 3078 663 3078 646C3078 638 3077 629 3076 622L3048 468C3018 477 2991 482 2966 482C2897 482 2803 410 2757 323C2726 265 2706 170 2706 86C2706 21 2721 -11 2750 -11C2777 -11 2814 6 2848 33C2902 77 2935 116 3002 217L2979 126C2968 82 2963 50 2963 24C2963 3 2972 -9 2989 -9C3006 -9 3030 3 3064 28L3145 88L3135 107L3091 76C3077 66 3061 59 3052 59C3044 59 3038 68 3038 82C3038 90 3039 99 3046 128ZM2803 59C2787 59 2778 73 2778 98C2778 224 2824 380 2873 418C2886 428 2905 433 2932 433C2976 433 3005 427 3038 410L3026 351C2989 171 2848 59 2803 59ZM3219 148C3214 97 3208 62 3197 16C3235 -2 3269 -11 3304 -11C3353 -11 3399 7 3450 47C3501 87 3522 124 3522 174C3522 228 3490 257 3416 271L3373 279C3313 290 3294 307 3294 348C3294 401 3339 442 3396 442C3437 442 3475 424 3491 397L3491 342L3514 342C3518 377 3522 404 3533 455C3494 474 3466 482 3433 482C3381 482 3320 452 3272 404C3246 377 3235 352 3235 316C3235 260 3266 228 3332 215L3395 203C3439 195 3455 177 3455 138C3455 73 3409 29 3338 29C3303 29 3272 40 3244 64L3244 148Z" stroke="rgb(0, 0, 0)" stroke-width="8" fill="rgb(0, 0, 0)" style="transform:matrix(0.017,0,0,-0.017,0,0);"></path></g></g></g></g></g></g><g><g><g style="transform:matrix(1,0,0,1,206.046875,160.3828125);"><path d="M9 1C24 -7 40 -11 52 -11C85 -11 124 18 155 65L231 182L242 113C255 28 278 -11 314 -11C336 -11 368 6 400 35L449 79L440 98C404 68 379 53 363 53C348 53 335 63 325 83C316 102 305 139 300 168L282 269L317 318C364 383 391 406 422 406C438 406 450 398 455 383L469 387L484 472C472 479 463 482 454 482C414 482 374 446 312 354L275 299L269 347C257 446 230 482 171 482C145 482 123 474 114 461L56 378L73 368C103 402 123 416 142 416C175 416 197 375 214 277L225 215L185 153C142 86 108 54 80 54C65 54 54 58 52 63L41 91L21 88C21 53 13 27 9 1Z" stroke="rgb(0, 0, 0)" stroke-width="8" fill="rgb(0, 0, 0)" style="transform:matrix(0.017,0,0,-0.017,0,0);"></path></g><g><g><g><g style="transform:matrix(1,0,0,1,214.515625,165.7671875);"><path d="M418 -3L418 27L366 30C311 33 301 44 301 96L301 700L60 598L67 548L217 614L217 96C217 44 206 33 152 30L96 27L96 -3C250 0 250 0 261 0C292 0 402 -3 418 -3Z" stroke="rgb(0, 0, 0)" stroke-width="8" fill="rgb(0, 0, 0)" style="transform:matrix(0.0119,0,0,-0.0119,0,0);"></path></g></g></g></g></g></g><g><g><g style="transform:matrix(1,0,0,1,232.703125,160.3828125);"><path d="M9 1C24 -7 40 -11 52 -11C85 -11 124 18 155 65L231 182L242 113C255 28 278 -11 314 -11C336 -11 368 6 400 35L449 79L440 98C404 68 379 53 363 53C348 53 335 63 325 83C316 102 305 139 300 168L282 269L317 318C364 383 391 406 422 406C438 406 450 398 455 383L469 387L484 472C472 479 463 482 454 482C414 482 374 446 312 354L275 299L269 347C257 446 230 482 171 482C145 482 123 474 114 461L56 378L73 368C103 402 123 416 142 416C175 416 197 375 214 277L225 215L185 153C142 86 108 54 80 54C65 54 54 58 52 63L41 91L21 88C21 53 13 27 9 1Z" stroke="rgb(0, 0, 0)" stroke-width="8" fill="rgb(0, 0, 0)" style="transform:matrix(0.017,0,0,-0.017,0,0);"></path></g><g><g><g><g style="transform:matrix(1,0,0,1,241.171875,165.7671875);"><path d="M16 23L16 -3C203 -3 203 0 239 0C275 0 275 -3 468 -3L468 82C353 77 307 81 122 77L304 270C401 373 431 428 431 503C431 618 353 689 226 689C154 689 105 669 56 619L39 483L68 483L81 529C97 587 133 612 200 612C286 612 341 558 341 473C341 398 299 324 186 204Z" stroke="rgb(0, 0, 0)" stroke-width="8" fill="rgb(0, 0, 0)" style="transform:matrix(0.0119,0,0,-0.0119,0,0);"></path></g></g></g></g></g></g><g><g><g style="transform:matrix(1,0,0,1,258.046875,160.3828125);"><path d="M9 1C24 -7 40 -11 52 -11C85 -11 124 18 155 65L231 182L242 113C255 28 278 -11 314 -11C336 -11 368 6 400 35L449 79L440 98C404 68 379 53 363 53C348 53 335 63 325 83C316 102 305 139 300 168L282 269L317 318C364 383 391 406 422 406C438 406 450 398 455 383L469 387L484 472C472 479 463 482 454 482C414 482 374 446 312 354L275 299L269 347C257 446 230 482 171 482C145 482 123 474 114 461L56 378L73 368C103 402 123 416 142 416C175 416 197 375 214 277L225 215L185 153C142 86 108 54 80 54C65 54 54 58 52 63L41 91L21 88C21 53 13 27 9 1Z" stroke="rgb(0, 0, 0)" stroke-width="8" fill="rgb(0, 0, 0)" style="transform:matrix(0.017,0,0,-0.017,0,0);"></path></g><g><g><g><g style="transform:matrix(1,0,0,1,266.515625,165.7671875);"><path d="M462 224C462 345 355 366 308 374C388 436 418 482 418 541C418 630 344 689 233 689C165 689 120 670 72 622L43 498L74 498L92 554C103 588 166 622 218 622C283 622 336 569 336 506C336 431 277 368 206 368C198 368 187 369 174 370L159 371L147 318L154 312C192 329 211 334 238 334C321 334 369 281 369 190C369 88 308 21 215 21C169 21 128 36 98 64C74 86 61 109 42 163L15 153C36 92 44 56 50 6C103 -12 147 -20 184 -20C307 -20 462 87 462 224Z" stroke="rgb(0, 0, 0)" stroke-width="8" fill="rgb(0, 0, 0)" style="transform:matrix(0.0119,0,0,-0.0119,0,0);"></path></g></g></g></g></g></g><g><g><g style="transform:matrix(1,0,0,1,285.046875,160.3828125);"><path d="M9 1C24 -7 40 -11 52 -11C85 -11 124 18 155 65L231 182L242 113C255 28 278 -11 314 -11C336 -11 368 6 400 35L449 79L440 98C404 68 379 53 363 53C348 53 335 63 325 83C316 102 305 139 300 168L282 269L317 318C364 383 391 406 422 406C438 406 450 398 455 383L469 387L484 472C472 479 463 482 454 482C414 482 374 446 312 354L275 299L269 347C257 446 230 482 171 482C145 482 123 474 114 461L56 378L73 368C103 402 123 416 142 416C175 416 197 375 214 277L225 215L185 153C142 86 108 54 80 54C65 54 54 58 52 63L41 91L21 88C21 53 13 27 9 1Z" stroke="rgb(0, 0, 0)" stroke-width="8" fill="rgb(0, 0, 0)" style="transform:matrix(0.017,0,0,-0.017,0,0);"></path></g><g><g><g><g style="transform:matrix(1,0,0,1,293.515625,165.7671875);"><path d="M280 181L280 106C280 46 269 32 220 30L158 27L158 -3C291 0 291 0 315 0C339 0 339 0 472 -3L472 27L424 30C375 33 364 46 364 106L364 181C423 181 444 180 472 177L472 248L364 245L365 697L285 667L2 204L2 181ZM280 245L65 245L280 597Z" stroke="rgb(0, 0, 0)" stroke-width="8" fill="rgb(0, 0, 0)" style="transform:matrix(0.0119,0,0,-0.0119,0,0);"></path></g></g></g></g></g></g><g><g><g style="transform:matrix(1,0,0,1,312.703125,160.3828125);"><path d="M9 1C24 -7 40 -11 52 -11C85 -11 124 18 155 65L231 182L242 113C255 28 278 -11 314 -11C336 -11 368 6 400 35L449 79L440 98C404 68 379 53 363 53C348 53 335 63 325 83C316 102 305 139 300 168L282 269L317 318C364 383 391 406 422 406C438 406 450 398 455 383L469 387L484 472C472 479 463 482 454 482C414 482 374 446 312 354L275 299L269 347C257 446 230 482 171 482C145 482 123 474 114 461L56 378L73 368C103 402 123 416 142 416C175 416 197 375 214 277L225 215L185 153C142 86 108 54 80 54C65 54 54 58 52 63L41 91L21 88C21 53 13 27 9 1Z" stroke="rgb(0, 0, 0)" stroke-width="8" fill="rgb(0, 0, 0)" style="transform:matrix(0.017,0,0,-0.017,0,0);"></path></g><g><g><g><g style="transform:matrix(1,0,0,1,321.171875,165.7671875);"><path d="M459 253C459 366 378 446 264 446C216 446 180 443 127 396L127 605L432 604L432 689L75 690L75 322L95 316C142 363 169 377 218 377C314 377 374 309 374 201C374 90 310 25 201 25C147 25 97 43 83 69L37 151L13 137C36 80 48 48 62 4C90 -11 130 -20 173 -20C301 -20 459 89 459 253Z" stroke="rgb(0, 0, 0)" stroke-width="8" fill="rgb(0, 0, 0)" style="transform:matrix(0.0119,0,0,-0.0119,0,0);"></path></g></g></g></g></g></g><g><g><g style="transform:matrix(1,0,0,1,337.046875,160.3828125);"><path d="M9 1C24 -7 40 -11 52 -11C85 -11 124 18 155 65L231 182L242 113C255 28 278 -11 314 -11C336 -11 368 6 400 35L449 79L440 98C404 68 379 53 363 53C348 53 335 63 325 83C316 102 305 139 300 168L282 269L317 318C364 383 391 406 422 406C438 406 450 398 455 383L469 387L484 472C472 479 463 482 454 482C414 482 374 446 312 354L275 299L269 347C257 446 230 482 171 482C145 482 123 474 114 461L56 378L73 368C103 402 123 416 142 416C175 416 197 375 214 277L225 215L185 153C142 86 108 54 80 54C65 54 54 58 52 63L41 91L21 88C21 53 13 27 9 1Z" stroke="rgb(0, 0, 0)" stroke-width="8" fill="rgb(0, 0, 0)" style="transform:matrix(0.017,0,0,-0.017,0,0);"></path></g><g><g><g><g style="transform:matrix(1,0,0,1,345.515625,165.7671875);"><path d="M131 331C152 512 241 611 421 665L379 689C283 657 242 637 191 593C88 506 32 384 32 247C32 82 112 -20 241 -20C371 -20 468 83 468 219C468 334 399 409 293 409C216 409 184 370 131 331ZM255 349C331 349 382 283 382 184C382 80 331 13 254 13C169 13 123 86 123 220C123 255 127 274 138 291C160 325 207 349 255 349Z" stroke="rgb(0, 0, 0)" stroke-width="8" fill="rgb(0, 0, 0)" style="transform:matrix(0.0119,0,0,-0.0119,0,0);"></path></g></g></g></g></g></g><g><g><g><g><g><g style="transform:matrix(1,0,0,1,247.9140625,228.5);"><path d="M855 471C855 386 893 339 977 319L1072 296C1126 283 1153 248 1153 191C1153 96 1082 30 979 30C925 30 887 42 843 73L843 172L813 172C807 117 800 72 789 20C838 -5 891 -18 944 -18C1099 -18 1232 99 1232 234C1232 313 1189 355 1088 377L1023 391C957 405 927 442 927 508C927 595 994 658 1086 658C1135 658 1168 645 1198 613L1198 537L1228 537C1232 591 1239 629 1253 672C1208 696 1168 706 1121 706C997 706 855 614 855 471ZM1845 227C1845 337 1761 353 1679 365C1736 385 1761 397 1792 425C1838 464 1861 511 1861 562C1861 644 1803 692 1703 692C1701 692 1691 692 1676 691L1613 690C1601 689 1565 689 1553 689C1534 689 1503 690 1454 691L1402 692L1399 664L1452 662C1476 661 1487 653 1487 635C1487 621 1483 589 1478 559L1391 55C1387 37 1375 30 1333 23L1328 -3L1365 -2C1392 0 1407 0 1419 0C1430 0 1456 -1 1482 -2L1519 -3L1539 -4C1558 -5 1571 -6 1579 -6C1694 -6 1845 87 1845 227ZM1468 41L1519 340L1604 340C1707 340 1757 298 1757 211C1757 108 1684 34 1584 34C1530 34 1509 38 1468 41ZM1654 655C1735 655 1775 619 1775 544C1775 439 1701 376 1577 376L1525 376L1574 650C1590 650 1631 655 1654 655ZM1929 152C1929 46 1974 -11 2057 -11C2112 -11 2172 15 2217 57C2279 116 2323 230 2323 331C2323 425 2273 482 2190 482C2086 482 1929 382 1929 152ZM2153 444C2214 444 2247 399 2247 315C2247 219 2216 113 2172 60C2154 39 2128 27 2097 27C2039 27 2005 72 2005 151C2005 264 2044 387 2093 427C2106 438 2129 444 2153 444ZM2364 1C2379 -7 2395 -11 2407 -11C2440 -11 2479 18 2510 65L2586 182L2597 113C2610 28 2633 -11 2669 -11C2691 -11 2723 6 2755 35L2804 79L2795 98C2759 68 2734 53 2718 53C2703 53 2690 63 2680 83C2671 102 2660 139 2655 168L2637 269L2672 318C2719 383 2746 406 2777 406C2793 406 2805 398 2810 383L2824 387L2839 472C2827 479 2818 482 2809 482C2769 482 2729 446 2667 354L2630 299L2624 347C2612 446 2585 482 2526 482C2500 482 2478 474 2469 461L2411 378L2428 368C2458 402 2478 416 2497 416C2530 416 2552 375 2569 277L2580 215L2540 153C2497 86 2463 54 2435 54C2420 54 2409 58 2407 63L2396 91L2376 88C2376 53 2368 27 2364 1Z" stroke="rgb(0, 0, 0)" stroke-width="8" fill="rgb(0, 0, 0)" style="transform:matrix(0.017,0,0,-0.017,0,0);"></path></g></g><g><g style="transform:matrix(1,0,0,1,247.9140625,248.5);"><path d="M146 266C146 526 243 632 301 700L282 726C225 675 60 542 60 266C60 159 85 58 133 -32C168 -99 200 -138 282 -215L301 -194C255 -137 146 -15 146 266Z" stroke="rgb(0, 0, 0)" stroke-width="8" fill="rgb(0, 0, 0)" style="transform:matrix(0.017,0,0,-0.017,0,0);"></path></g><g style="transform:matrix(1,0,0,1,253.9140625,248.5);"><path d="M131 331C152 512 241 611 421 665L379 689C283 657 242 637 191 593C88 506 32 384 32 247C32 82 112 -20 241 -20C371 -20 468 83 468 219C468 334 399 409 293 409C216 409 184 370 131 331ZM255 349C331 349 382 283 382 184C382 80 331 13 254 13C169 13 123 86 123 220C123 255 127 274 138 291C160 325 207 349 255 349Z" stroke="rgb(0, 0, 0)" stroke-width="8" fill="rgb(0, 0, 0)" style="transform:matrix(0.017,0,0,-0.017,0,0);"></path></g><g style="transform:matrix(1,0,0,1,270.9140625,248.5);"><path d="M949 93L778 271L949 451L743 665L711 631L836 479L65 479L65 420L836 420L711 268L836 121L65 121L65 62L836 62L711 -89L743 -124Z" stroke="rgb(0, 0, 0)" stroke-width="8" fill="rgb(0, 0, 0)" style="transform:matrix(0.017,0,0,-0.017,0,0);"></path></g><g style="transform:matrix(1,0,0,1,293.9140625,248.5);"><path d="M529 181L529 106C529 46 518 32 469 30L407 27L407 -3C540 0 540 0 564 0C588 0 588 0 721 -3L721 27L673 30C624 33 613 46 613 106L613 181C672 181 693 180 721 177L721 248L613 245L614 697L534 667L251 204L251 181ZM529 245L314 245L529 597Z" stroke="rgb(0, 0, 0)" stroke-width="8" fill="rgb(0, 0, 0)" style="transform:matrix(0.017,0,0,-0.017,0,0);"></path></g><g style="transform:matrix(1,0,0,1,306.1953125,248.5);"><path d="M51 726L32 700C87 636 187 526 187 266C187 -10 83 -131 32 -194L51 -215C104 -165 273 -23 273 265C273 542 108 675 51 726Z" stroke="rgb(0, 0, 0)" stroke-width="8" fill="rgb(0, 0, 0)" style="transform:matrix(0.017,0,0,-0.017,0,0);"></path></g></g></g></g></g></g><g><g><g style="transform:matrix(1,0,0,1,232.0078125,313.3828125);"><path d="M240 722L228 733C176 707 140 698 68 691L64 670L112 670C136 670 146 663 146 646C146 638 145 629 144 622L96 354C82 279 66 210 14 1L23 -9L90 8L113 132C122 180 146 225 180 259C249 59 281 -9 306 -9C319 -9 343 4 387 35L433 67L425 86L382 62C368 54 361 52 353 52C343 52 336 58 327 75C292 139 270 193 231 316L245 330C306 391 352 416 402 416C410 416 421 414 438 410L455 473C437 479 419 482 407 482C341 482 258 405 133 230ZM499 148C494 97 488 62 477 16C515 -2 549 -11 584 -11C633 -11 679 7 730 47C781 87 802 124 802 174C802 228 770 257 696 271L653 279C593 290 574 307 574 348C574 401 619 442 676 442C717 442 755 424 771 397L771 342L794 342C798 377 802 404 813 455C774 474 746 482 713 482C661 482 600 452 552 404C526 377 515 352 515 316C515 260 546 228 612 215L675 203C719 195 735 177 735 138C735 73 689 29 618 29C583 29 552 40 524 64L524 148Z" stroke="rgb(0, 0, 0)" stroke-width="8" fill="rgb(0, 0, 0)" style="transform:matrix(0.017,0,0,-0.017,0,0);"></path></g><g><g><g><g style="transform:matrix(1,0,0,1,246.5546875,318.7671875);"><path d="M418 -3L418 27L366 30C311 33 301 44 301 96L301 700L60 598L67 548L217 614L217 96C217 44 206 33 152 30L96 27L96 -3C250 0 250 0 261 0C292 0 402 -3 418 -3Z" stroke="rgb(0, 0, 0)" stroke-width="8" fill="rgb(0, 0, 0)" style="transform:matrix(0.0119,0,0,-0.0119,0,0);"></path></g></g></g></g></g></g><g><g><g style="transform:matrix(1,0,0,1,258.6640625,313.3828125);"><path d="M240 722L228 733C176 707 140 698 68 691L64 670L112 670C136 670 146 663 146 646C146 638 145 629 144 622L96 354C82 279 66 210 14 1L23 -9L90 8L113 132C122 180 146 225 180 259C249 59 281 -9 306 -9C319 -9 343 4 387 35L433 67L425 86L382 62C368 54 361 52 353 52C343 52 336 58 327 75C292 139 270 193 231 316L245 330C306 391 352 416 402 416C410 416 421 414 438 410L455 473C437 479 419 482 407 482C341 482 258 405 133 230ZM499 148C494 97 488 62 477 16C515 -2 549 -11 584 -11C633 -11 679 7 730 47C781 87 802 124 802 174C802 228 770 257 696 271L653 279C593 290 574 307 574 348C574 401 619 442 676 442C717 442 755 424 771 397L771 342L794 342C798 377 802 404 813 455C774 474 746 482 713 482C661 482 600 452 552 404C526 377 515 352 515 316C515 260 546 228 612 215L675 203C719 195 735 177 735 138C735 73 689 29 618 29C583 29 552 40 524 64L524 148Z" stroke="rgb(0, 0, 0)" stroke-width="8" fill="rgb(0, 0, 0)" style="transform:matrix(0.017,0,0,-0.017,0,0);"></path></g><g><g><g><g style="transform:matrix(1,0,0,1,273.2109375,318.7671875);"><path d="M16 23L16 -3C203 -3 203 0 239 0C275 0 275 -3 468 -3L468 82C353 77 307 81 122 77L304 270C401 373 431 428 431 503C431 618 353 689 226 689C154 689 105 669 56 619L39 483L68 483L81 529C97 587 133 612 200 612C286 612 341 558 341 473C341 398 299 324 186 204Z" stroke="rgb(0, 0, 0)" stroke-width="8" fill="rgb(0, 0, 0)" style="transform:matrix(0.0119,0,0,-0.0119,0,0);"></path></g></g></g></g></g></g><g><g><g style="transform:matrix(1,0,0,1,284.0078125,313.3828125);"><path d="M240 722L228 733C176 707 140 698 68 691L64 670L112 670C136 670 146 663 146 646C146 638 145 629 144 622L96 354C82 279 66 210 14 1L23 -9L90 8L113 132C122 180 146 225 180 259C249 59 281 -9 306 -9C319 -9 343 4 387 35L433 67L425 86L382 62C368 54 361 52 353 52C343 52 336 58 327 75C292 139 270 193 231 316L245 330C306 391 352 416 402 416C410 416 421 414 438 410L455 473C437 479 419 482 407 482C341 482 258 405 133 230ZM499 148C494 97 488 62 477 16C515 -2 549 -11 584 -11C633 -11 679 7 730 47C781 87 802 124 802 174C802 228 770 257 696 271L653 279C593 290 574 307 574 348C574 401 619 442 676 442C717 442 755 424 771 397L771 342L794 342C798 377 802 404 813 455C774 474 746 482 713 482C661 482 600 452 552 404C526 377 515 352 515 316C515 260 546 228 612 215L675 203C719 195 735 177 735 138C735 73 689 29 618 29C583 29 552 40 524 64L524 148Z" stroke="rgb(0, 0, 0)" stroke-width="8" fill="rgb(0, 0, 0)" style="transform:matrix(0.017,0,0,-0.017,0,0);"></path></g><g><g><g><g style="transform:matrix(1,0,0,1,298.5546875,318.7671875);"><path d="M462 224C462 345 355 366 308 374C388 436 418 482 418 541C418 630 344 689 233 689C165 689 120 670 72 622L43 498L74 498L92 554C103 588 166 622 218 622C283 622 336 569 336 506C336 431 277 368 206 368C198 368 187 369 174 370L159 371L147 318L154 312C192 329 211 334 238 334C321 334 369 281 369 190C369 88 308 21 215 21C169 21 128 36 98 64C74 86 61 109 42 163L15 153C36 92 44 56 50 6C103 -12 147 -20 184 -20C307 -20 462 87 462 224Z" stroke="rgb(0, 0, 0)" stroke-width="8" fill="rgb(0, 0, 0)" style="transform:matrix(0.0119,0,0,-0.0119,0,0);"></path></g></g></g></g></g></g><g><g><g style="transform:matrix(1,0,0,1,311.0078125,313.3828125);"><path d="M240 722L228 733C176 707 140 698 68 691L64 670L112 670C136 670 146 663 146 646C146 638 145 629 144 622L96 354C82 279 66 210 14 1L23 -9L90 8L113 132C122 180 146 225 180 259C249 59 281 -9 306 -9C319 -9 343 4 387 35L433 67L425 86L382 62C368 54 361 52 353 52C343 52 336 58 327 75C292 139 270 193 231 316L245 330C306 391 352 416 402 416C410 416 421 414 438 410L455 473C437 479 419 482 407 482C341 482 258 405 133 230ZM499 148C494 97 488 62 477 16C515 -2 549 -11 584 -11C633 -11 679 7 730 47C781 87 802 124 802 174C802 228 770 257 696 271L653 279C593 290 574 307 574 348C574 401 619 442 676 442C717 442 755 424 771 397L771 342L794 342C798 377 802 404 813 455C774 474 746 482 713 482C661 482 600 452 552 404C526 377 515 352 515 316C515 260 546 228 612 215L675 203C719 195 735 177 735 138C735 73 689 29 618 29C583 29 552 40 524 64L524 148Z" stroke="rgb(0, 0, 0)" stroke-width="8" fill="rgb(0, 0, 0)" style="transform:matrix(0.017,0,0,-0.017,0,0);"></path></g><g><g><g><g style="transform:matrix(1,0,0,1,325.5546875,318.7671875);"><path d="M280 181L280 106C280 46 269 32 220 30L158 27L158 -3C291 0 291 0 315 0C339 0 339 0 472 -3L472 27L424 30C375 33 364 46 364 106L364 181C423 181 444 180 472 177L472 248L364 245L365 697L285 667L2 204L2 181ZM280 245L65 245L280 597Z" stroke="rgb(0, 0, 0)" stroke-width="8" fill="rgb(0, 0, 0)" style="transform:matrix(0.0119,0,0,-0.0119,0,0);"></path></g></g></g></g></g></g></svg>
</svg>
