<svg xmlns="http://www.w3.org/2000/svg" width="347" height="132" style="
        width:347px;
        height:132px;
        background: transparent;
        fill: none;
">
        
        <svg xmlns="http://www.w3.org/2000/svg"><g class="shapes-region" style="stroke: black; fill: none;"><g class="grouped-shape"><g class="composite-shape ignore-highlight"><path class="real" d=" M44.6,55 L70.6,55 L70.6,84 L44.6,84 Z" style="stroke-width: 1; stroke: rgb(0, 0, 0); fill: none;"/></g><g class="composite-shape ignore-highlight"><path class="real" d=" M71.27,55 L97.27,55 L97.27,84 L71.27,84 Z" style="stroke-width: 1; stroke: rgb(0, 0, 0); fill: none;"/></g><g class="composite-shape ignore-highlight"><path class="real" d=" M96.6,55 L122.6,55 L122.6,84 L96.6,84 Z" style="stroke-width: 1; stroke: rgb(0, 0, 0); fill: none;"/></g><g class="composite-shape ignore-highlight"><path class="real" d=" M123.6,55 L149.6,55 L149.6,84 L123.6,84 Z" style="stroke-width: 1; stroke: rgb(0, 0, 0); fill: none;"/></g><g class="composite-shape ignore-highlight"><path class="real" d=" M149.6,55 L175.6,55 L175.6,84 L149.6,84 Z" style="stroke-width: 1; stroke: rgb(0, 0, 0); fill: none;"/></g><g class="composite-shape ignore-highlight"><path class="real" d=" M176.27,55 L202.27,55 L202.27,84 L176.27,84 Z" style="stroke-width: 1; stroke: rgb(0, 0, 0); fill: none;"/></g><g class="composite-shape ignore-highlight"><path class="real" d=" M201.6,55 L227.6,55 L227.6,84 L201.6,84 Z" style="stroke-width: 1; stroke: rgb(0, 0, 0); fill: none;"/></g><g class="composite-shape ignore-highlight"><path class="real" d=" M228.6,55 L254.6,55 L254.6,84 L228.6,84 Z" style="stroke-width: 1; stroke: rgb(0, 0, 0); fill: none;"/></g><g class="composite-shape ignore-highlight"><path class="real" d=" M255.31,55.07 L281.31,55.07 L281.31,84.07 L255.31,84.07 Z" style="stroke-width: 1; stroke: rgb(0, 0, 0); fill: none;"/></g><g class="composite-shape ignore-highlight"><path class="real" d=" M281.98,55.07 L307.98,55.07 L307.98,84.07 L281.98,84.07 Z" style="stroke-width: 1; stroke: rgb(0, 0, 0); fill: none; stroke-dasharray: 6, 6;"/></g><g class="composite-shape ignore-highlight"><path class="real" d=" M18.6,55 L44.6,55 L44.6,84 L18.6,84 Z" style="stroke-width: 1; stroke: rgb(0, 0, 0); fill: none;"/></g></g><g class="arrow-line"><path class="connection real" stroke-dasharray="" d="  M296,33.93 L296,51" style="stroke: rgb(0, 0, 0); stroke-width: 1; fill: none;"/><g stroke="#000" transform="matrix(-1.8369701987210297e-16,-1,1,-1.8369701987210297e-16,296,53)" style="stroke: rgb(0, 0, 0); stroke-width: 1;"><path d=" M10.93,-3.29 Q4.96,-0.45 0,0 Q4.96,0.45 10.93,3.29"/></g></g><g class="composite-shape"><path class="real" d=" M22,104 C22,99.03 26.03,95 31,95 C35.97,95 40,99.03 40,104 C40,108.97 35.97,113 31,113 C26.03,113 22,108.97 22,104 Z" style="stroke-width: 1; stroke: rgb(0, 0, 0); fill: none;"/><path class="real" d=" M22,104 L40,104" style="stroke-width: 1; stroke: rgb(0, 0, 0); fill: none;"/><path class="real" d=" M31,95 L31,113" style="stroke-width: 1; stroke: rgb(0, 0, 0); fill: none;"/></g><g class="composite-shape"><path class="real" d=" M49,104 C49,99.03 53.03,95 58,95 C62.97,95 67,99.03 67,104 C67,108.97 62.97,113 58,113 C53.03,113 49,108.97 49,104 Z" style="stroke-width: 1; stroke: rgb(0, 0, 0); fill: none;"/><path class="real" d=" M49,104 L67,104" style="stroke-width: 1; stroke: rgb(0, 0, 0); fill: none;"/><path class="real" d=" M58,95 L58,113" style="stroke-width: 1; stroke: rgb(0, 0, 0); fill: none;"/></g><g class="composite-shape"><path class="real" d=" M74,104 C74,99.03 78.03,95 83,95 C87.97,95 92,99.03 92,104 C92,108.97 87.97,113 83,113 C78.03,113 74,108.97 74,104 Z" style="stroke-width: 1; stroke: rgb(0, 0, 0); fill: none;"/><path class="real" d=" M74,104 L92,104" style="stroke-width: 1; stroke: rgb(0, 0, 0); fill: none;"/><path class="real" d=" M83,95 L83,113" style="stroke-width: 1; stroke: rgb(0, 0, 0); fill: none;"/></g><g class="composite-shape"><path class="real" d=" M101,104 C101,99.03 105.03,95 110,95 C114.97,95 119,99.03 119,104 C119,108.97 114.97,113 110,113 C105.03,113 101,108.97 101,104 Z" style="stroke-width: 1; stroke: rgb(0, 0, 0); fill: none;"/><path class="real" d=" M101,104 L119,104" style="stroke-width: 1; stroke: rgb(0, 0, 0); fill: none;"/><path class="real" d=" M110,95 L110,113" style="stroke-width: 1; stroke: rgb(0, 0, 0); fill: none;"/></g><g class="composite-shape"><path class="real" d=" M259,104 C259,99.03 263.03,95 268,95 C272.97,95 277,99.03 277,104 C277,108.97 272.97,113 268,113 C263.03,113 259,108.97 259,104 Z" style="stroke-width: 1; stroke: rgb(0, 0, 0); fill: none;"/><path class="real" d=" M259,104 L277,104" style="stroke-width: 1; stroke: rgb(0, 0, 0); fill: none;"/><path class="real" d=" M268,95 L268,113" style="stroke-width: 1; stroke: rgb(0, 0, 0); fill: none;"/></g><g class="composite-shape"><path class="real" d=" M286,104 C286,99.03 290.03,95 295,95 C299.97,95 304,99.03 304,104 C304,108.97 299.97,113 295,113 C290.03,113 286,108.97 286,104 Z" style="stroke-width: 1; stroke: rgba(0, 0, 0, 0.45); fill: none;"/><path class="real" d=" M286,104 L304,104" style="stroke-width: 1; stroke: rgba(0, 0, 0, 0.45); fill: none;"/><path class="real" d=" M295,95 L295,113" style="stroke-width: 1; stroke: rgba(0, 0, 0, 0.45); fill: none;"/></g><g class="arrow-line"><path class="connection real" stroke-dasharray="" d="  M30,104 L324.5,104" style="stroke: rgb(0, 0, 0); stroke-width: 1; fill: none;"/></g><g class="arrow-line"><path class="connection real" stroke-dasharray="" d="  M307.47,69 L324,69" style="stroke: rgb(0, 0, 0); stroke-width: 1; fill: none;"/></g><g class="arrow-line"><path class="connection real" stroke-dasharray="" d="  M324,69 L324.5,104" style="stroke: rgb(0, 0, 0); stroke-width: 1; fill: none;"/></g><g class="composite-shape"><path class="real" d=" M149,27 L155,35 L149,43 M153,27 L159,35 L153,43" style="stroke-width: 1; stroke: rgb(0, 0, 0); fill: none;"/></g><g class="arrow-line"><path class="connection real" stroke-dasharray="" d="  M31,94.8 L31,83.71" style="stroke: rgb(0, 0, 0); stroke-width: 1; fill: none;"/></g><g class="arrow-line"><path class="connection real" stroke-dasharray="" d="  M58,95.6 L58,84.51" style="stroke: rgb(0, 0, 0); stroke-width: 1; fill: none;"/></g><g class="arrow-line"><path class="connection real" stroke-dasharray="" d="  M83,95.6 L83,84.51" style="stroke: rgb(0, 0, 0); stroke-width: 1; fill: none;"/></g><g class="arrow-line"><path class="connection real" stroke-dasharray="" d="  M110.2,95.2 L110.2,84.11" style="stroke: rgb(0, 0, 0); stroke-width: 1; fill: none;"/></g><g class="arrow-line"><path class="connection real" stroke-dasharray="" d="  M268,95.4 L268,84.31" style="stroke: rgb(0, 0, 0); stroke-width: 1; fill: none;"/></g><g class="arrow-line"><path class="connection real" stroke-dasharray="" d="  M295.2,95.69 L295.2,84.6" style="stroke: rgba(0, 0, 0, 0.49); stroke-width: 1; fill: none;"/></g><g class="intersections-group"><g style="stroke: rgb(0, 0, 0); stroke-width: 1; fill: none;"/></g></g><g/><g/><!-- react-empty: 45042 --></svg>
        <svg xmlns="http://www.w3.org/2000/svg" width="345" height="130" style="width:345px;height:130px;font-family:Asana-Math, Asana;background:transparent;"><g><g><g style="transform:matrix(1,0,0,1,51.5234375,72.5859375);"><path d="M271 204L242 77C238 60 236 42 236 26C236 4 245 -9 260 -9C283 -9 324 17 406 85L399 106C375 86 346 59 324 59C315 59 309 68 309 82C309 87 309 90 310 93L402 472L392 481L359 463C318 478 301 482 274 482C246 482 226 477 199 464C137 433 104 403 79 354C35 265 4 145 4 67C4 23 19 -11 38 -11C75 -11 155 41 271 204ZM319 414C297 305 278 253 244 201C187 117 126 59 94 59C82 59 76 72 76 99C76 163 104 280 139 360C163 415 186 433 234 433C257 433 275 429 319 414Z" stroke="rgb(0, 0, 0)" stroke-width="8" fill="rgb(0, 0, 0)" style="transform:matrix(0.017,0,0,-0.017,0,0);"></path></g><g><g><g><g style="transform:matrix(1,0,0,1,59.0390625,77.9703125);"><path d="M418 -3L418 27L366 30C311 33 301 44 301 96L301 700L60 598L67 548L217 614L217 96C217 44 206 33 152 30L96 27L96 -3C250 0 250 0 261 0C292 0 402 -3 418 -3Z" stroke="rgb(0, 0, 0)" stroke-width="8" fill="rgb(0, 0, 0)" style="transform:matrix(0.0119,0,0,-0.0119,0,0);"></path></g></g></g></g></g></g><g><g><g style="transform:matrix(1,0,0,1,78.1796875,72.5859375);"><path d="M271 204L242 77C238 60 236 42 236 26C236 4 245 -9 260 -9C283 -9 324 17 406 85L399 106C375 86 346 59 324 59C315 59 309 68 309 82C309 87 309 90 310 93L402 472L392 481L359 463C318 478 301 482 274 482C246 482 226 477 199 464C137 433 104 403 79 354C35 265 4 145 4 67C4 23 19 -11 38 -11C75 -11 155 41 271 204ZM319 414C297 305 278 253 244 201C187 117 126 59 94 59C82 59 76 72 76 99C76 163 104 280 139 360C163 415 186 433 234 433C257 433 275 429 319 414Z" stroke="rgb(0, 0, 0)" stroke-width="8" fill="rgb(0, 0, 0)" style="transform:matrix(0.017,0,0,-0.017,0,0);"></path></g><g><g><g><g style="transform:matrix(1,0,0,1,85.6953125,77.9703125);"><path d="M16 23L16 -3C203 -3 203 0 239 0C275 0 275 -3 468 -3L468 82C353 77 307 81 122 77L304 270C401 373 431 428 431 503C431 618 353 689 226 689C154 689 105 669 56 619L39 483L68 483L81 529C97 587 133 612 200 612C286 612 341 558 341 473C341 398 299 324 186 204Z" stroke="rgb(0, 0, 0)" stroke-width="8" fill="rgb(0, 0, 0)" style="transform:matrix(0.0119,0,0,-0.0119,0,0);"></path></g></g></g></g></g></g><g><g><g style="transform:matrix(1,0,0,1,103.5234375,72.5859375);"><path d="M271 204L242 77C238 60 236 42 236 26C236 4 245 -9 260 -9C283 -9 324 17 406 85L399 106C375 86 346 59 324 59C315 59 309 68 309 82C309 87 309 90 310 93L402 472L392 481L359 463C318 478 301 482 274 482C246 482 226 477 199 464C137 433 104 403 79 354C35 265 4 145 4 67C4 23 19 -11 38 -11C75 -11 155 41 271 204ZM319 414C297 305 278 253 244 201C187 117 126 59 94 59C82 59 76 72 76 99C76 163 104 280 139 360C163 415 186 433 234 433C257 433 275 429 319 414Z" stroke="rgb(0, 0, 0)" stroke-width="8" fill="rgb(0, 0, 0)" style="transform:matrix(0.017,0,0,-0.017,0,0);"></path></g><g><g><g><g style="transform:matrix(1,0,0,1,111.0390625,77.9703125);"><path d="M462 224C462 345 355 366 308 374C388 436 418 482 418 541C418 630 344 689 233 689C165 689 120 670 72 622L43 498L74 498L92 554C103 588 166 622 218 622C283 622 336 569 336 506C336 431 277 368 206 368C198 368 187 369 174 370L159 371L147 318L154 312C192 329 211 334 238 334C321 334 369 281 369 190C369 88 308 21 215 21C169 21 128 36 98 64C74 86 61 109 42 163L15 153C36 92 44 56 50 6C103 -12 147 -20 184 -20C307 -20 462 87 462 224Z" stroke="rgb(0, 0, 0)" stroke-width="8" fill="rgb(0, 0, 0)" style="transform:matrix(0.0119,0,0,-0.0119,0,0);"></path></g></g></g></g></g></g><g><g><g style="transform:matrix(1,0,0,1,130.5234375,72.5859375);"><path d="M271 204L242 77C238 60 236 42 236 26C236 4 245 -9 260 -9C283 -9 324 17 406 85L399 106C375 86 346 59 324 59C315 59 309 68 309 82C309 87 309 90 310 93L402 472L392 481L359 463C318 478 301 482 274 482C246 482 226 477 199 464C137 433 104 403 79 354C35 265 4 145 4 67C4 23 19 -11 38 -11C75 -11 155 41 271 204ZM319 414C297 305 278 253 244 201C187 117 126 59 94 59C82 59 76 72 76 99C76 163 104 280 139 360C163 415 186 433 234 433C257 433 275 429 319 414Z" stroke="rgb(0, 0, 0)" stroke-width="8" fill="rgb(0, 0, 0)" style="transform:matrix(0.017,0,0,-0.017,0,0);"></path></g><g><g><g><g style="transform:matrix(1,0,0,1,138.0390625,77.9703125);"><path d="M280 181L280 106C280 46 269 32 220 30L158 27L158 -3C291 0 291 0 315 0C339 0 339 0 472 -3L472 27L424 30C375 33 364 46 364 106L364 181C423 181 444 180 472 177L472 248L364 245L365 697L285 667L2 204L2 181ZM280 245L65 245L280 597Z" stroke="rgb(0, 0, 0)" stroke-width="8" fill="rgb(0, 0, 0)" style="transform:matrix(0.0119,0,0,-0.0119,0,0);"></path></g></g></g></g></g></g><g><g><g style="transform:matrix(1,0,0,1,156.5234375,72.5859375);"><path d="M271 204L242 77C238 60 236 42 236 26C236 4 245 -9 260 -9C283 -9 324 17 406 85L399 106C375 86 346 59 324 59C315 59 309 68 309 82C309 87 309 90 310 93L402 472L392 481L359 463C318 478 301 482 274 482C246 482 226 477 199 464C137 433 104 403 79 354C35 265 4 145 4 67C4 23 19 -11 38 -11C75 -11 155 41 271 204ZM319 414C297 305 278 253 244 201C187 117 126 59 94 59C82 59 76 72 76 99C76 163 104 280 139 360C163 415 186 433 234 433C257 433 275 429 319 414Z" stroke="rgb(0, 0, 0)" stroke-width="8" fill="rgb(0, 0, 0)" style="transform:matrix(0.017,0,0,-0.017,0,0);"></path></g><g><g><g><g style="transform:matrix(1,0,0,1,164.0390625,77.9703125);"><path d="M459 253C459 366 378 446 264 446C216 446 180 443 127 396L127 605L432 604L432 689L75 690L75 322L95 316C142 363 169 377 218 377C314 377 374 309 374 201C374 90 310 25 201 25C147 25 97 43 83 69L37 151L13 137C36 80 48 48 62 4C90 -11 130 -20 173 -20C301 -20 459 89 459 253Z" stroke="rgb(0, 0, 0)" stroke-width="8" fill="rgb(0, 0, 0)" style="transform:matrix(0.0119,0,0,-0.0119,0,0);"></path></g></g></g></g></g></g><g><g><g style="transform:matrix(1,0,0,1,183.1796875,72.5859375);"><path d="M271 204L242 77C238 60 236 42 236 26C236 4 245 -9 260 -9C283 -9 324 17 406 85L399 106C375 86 346 59 324 59C315 59 309 68 309 82C309 87 309 90 310 93L402 472L392 481L359 463C318 478 301 482 274 482C246 482 226 477 199 464C137 433 104 403 79 354C35 265 4 145 4 67C4 23 19 -11 38 -11C75 -11 155 41 271 204ZM319 414C297 305 278 253 244 201C187 117 126 59 94 59C82 59 76 72 76 99C76 163 104 280 139 360C163 415 186 433 234 433C257 433 275 429 319 414Z" stroke="rgb(0, 0, 0)" stroke-width="8" fill="rgb(0, 0, 0)" style="transform:matrix(0.017,0,0,-0.017,0,0);"></path></g><g><g><g><g style="transform:matrix(1,0,0,1,190.6953125,77.9703125);"><path d="M131 331C152 512 241 611 421 665L379 689C283 657 242 637 191 593C88 506 32 384 32 247C32 82 112 -20 241 -20C371 -20 468 83 468 219C468 334 399 409 293 409C216 409 184 370 131 331ZM255 349C331 349 382 283 382 184C382 80 331 13 254 13C169 13 123 86 123 220C123 255 127 274 138 291C160 325 207 349 255 349Z" stroke="rgb(0, 0, 0)" stroke-width="8" fill="rgb(0, 0, 0)" style="transform:matrix(0.0119,0,0,-0.0119,0,0);"></path></g></g></g></g></g></g><g><g><g style="transform:matrix(1,0,0,1,208.5234375,72.5859375);"><path d="M271 204L242 77C238 60 236 42 236 26C236 4 245 -9 260 -9C283 -9 324 17 406 85L399 106C375 86 346 59 324 59C315 59 309 68 309 82C309 87 309 90 310 93L402 472L392 481L359 463C318 478 301 482 274 482C246 482 226 477 199 464C137 433 104 403 79 354C35 265 4 145 4 67C4 23 19 -11 38 -11C75 -11 155 41 271 204ZM319 414C297 305 278 253 244 201C187 117 126 59 94 59C82 59 76 72 76 99C76 163 104 280 139 360C163 415 186 433 234 433C257 433 275 429 319 414Z" stroke="rgb(0, 0, 0)" stroke-width="8" fill="rgb(0, 0, 0)" style="transform:matrix(0.017,0,0,-0.017,0,0);"></path></g><g><g><g><g style="transform:matrix(1,0,0,1,216.0390625,77.9703125);"><path d="M409 603L47 -1L157 -1L497 659L497 689L44 689L44 477L74 477L81 533C89 595 96 603 142 603Z" stroke="rgb(0, 0, 0)" stroke-width="8" fill="rgb(0, 0, 0)" style="transform:matrix(0.0119,0,0,-0.0119,0,0);"></path></g></g></g></g></g></g><g><g><g style="transform:matrix(1,0,0,1,235.5234375,72.5859375);"><path d="M271 204L242 77C238 60 236 42 236 26C236 4 245 -9 260 -9C283 -9 324 17 406 85L399 106C375 86 346 59 324 59C315 59 309 68 309 82C309 87 309 90 310 93L402 472L392 481L359 463C318 478 301 482 274 482C246 482 226 477 199 464C137 433 104 403 79 354C35 265 4 145 4 67C4 23 19 -11 38 -11C75 -11 155 41 271 204ZM319 414C297 305 278 253 244 201C187 117 126 59 94 59C82 59 76 72 76 99C76 163 104 280 139 360C163 415 186 433 234 433C257 433 275 429 319 414Z" stroke="rgb(0, 0, 0)" stroke-width="8" fill="rgb(0, 0, 0)" style="transform:matrix(0.017,0,0,-0.017,0,0);"></path></g><g><g><g><g style="transform:matrix(1,0,0,1,243.0390625,77.9703125);"><path d="M168 345C127 326 110 315 88 294C50 256 30 211 30 159C30 56 113 -20 226 -20C356 -20 464 82 464 206C464 286 427 329 313 381C404 443 436 485 436 545C436 631 365 689 259 689C140 689 53 613 53 508C53 440 80 402 168 345ZM284 295C347 267 385 218 385 164C385 80 322 14 241 14C156 14 101 74 101 167C101 240 130 286 204 331ZM223 423C160 454 128 494 128 544C128 610 176 655 247 655C320 655 368 607 368 534C368 477 343 438 278 396Z" stroke="rgb(0, 0, 0)" stroke-width="8" fill="rgb(0, 0, 0)" style="transform:matrix(0.0119,0,0,-0.0119,0,0);"></path></g></g></g></g></g></g><g><g><g style="transform:matrix(1,0,0,1,262.2265625,72.6484375);"><path d="M271 204L242 77C238 60 236 42 236 26C236 4 245 -9 260 -9C283 -9 324 17 406 85L399 106C375 86 346 59 324 59C315 59 309 68 309 82C309 87 309 90 310 93L402 472L392 481L359 463C318 478 301 482 274 482C246 482 226 477 199 464C137 433 104 403 79 354C35 265 4 145 4 67C4 23 19 -11 38 -11C75 -11 155 41 271 204ZM319 414C297 305 278 253 244 201C187 117 126 59 94 59C82 59 76 72 76 99C76 163 104 280 139 360C163 415 186 433 234 433C257 433 275 429 319 414Z" stroke="rgb(0, 0, 0)" stroke-width="8" fill="rgb(0, 0, 0)" style="transform:matrix(0.017,0,0,-0.017,0,0);"></path></g><g><g><g><g style="transform:matrix(1,0,0,1,269.7421875,78.0328125);"><path d="M96 -20C207 16 255 39 309 85C406 168 457 283 457 417C457 586 376 689 244 689C116 689 20 589 20 455C20 340 95 256 199 256C233 256 272 267 290 282L360 340C352 172 243 49 62 5L62 -3ZM240 656C285 656 318 637 340 597C358 565 370 516 370 471C370 379 317 317 240 317C160 317 106 388 106 492C106 593 158 656 240 656Z" stroke="rgb(0, 0, 0)" stroke-width="8" fill="rgb(0, 0, 0)" style="transform:matrix(0.0119,0,0,-0.0119,0,0);"></path></g></g></g></g></g></g><g><g><g style="transform:matrix(1,0,0,1,289.234375,74.6484375);"><path d="M271 204L242 77C238 60 236 42 236 26C236 4 245 -9 260 -9C283 -9 324 17 406 85L399 106C375 86 346 59 324 59C315 59 309 68 309 82C309 87 309 90 310 93L402 472L392 481L359 463C318 478 301 482 274 482C246 482 226 477 199 464C137 433 104 403 79 354C35 265 4 145 4 67C4 23 19 -11 38 -11C75 -11 155 41 271 204ZM319 414C297 305 278 253 244 201C187 117 126 59 94 59C82 59 76 72 76 99C76 163 104 280 139 360C163 415 186 433 234 433C257 433 275 429 319 414Z" stroke="rgb(0, 0, 0)" stroke-width="8" fill="rgb(0, 0, 0)" style="transform:matrix(0.017,0,0,-0.017,0,0);"></path></g><g><g><g><g style="transform:matrix(1,0,0,1,296.75,77.0328125);"><path d="M271 204L242 77C238 60 236 42 236 26C236 4 245 -9 260 -9C283 -9 324 17 406 85L399 106C375 86 346 59 324 59C315 59 309 68 309 82C309 87 309 90 310 93L402 472L392 481L359 463C318 478 301 482 274 482C246 482 226 477 199 464C137 433 104 403 79 354C35 265 4 145 4 67C4 23 19 -11 38 -11C75 -11 155 41 271 204ZM319 414C297 305 278 253 244 201C187 117 126 59 94 59C82 59 76 72 76 99C76 163 104 280 139 360C163 415 186 433 234 433C257 433 275 429 319 414Z" stroke="rgb(0, 0, 0)" stroke-width="8" fill="rgb(0, 0, 0)" style="transform:matrix(0.0119,0,0,-0.0119,0,0);"></path></g></g></g></g></g></g><g><g><g style="transform:matrix(1,0,0,1,25.5234375,72.5859375);"><path d="M271 204L242 77C238 60 236 42 236 26C236 4 245 -9 260 -9C283 -9 324 17 406 85L399 106C375 86 346 59 324 59C315 59 309 68 309 82C309 87 309 90 310 93L402 472L392 481L359 463C318 478 301 482 274 482C246 482 226 477 199 464C137 433 104 403 79 354C35 265 4 145 4 67C4 23 19 -11 38 -11C75 -11 155 41 271 204ZM319 414C297 305 278 253 244 201C187 117 126 59 94 59C82 59 76 72 76 99C76 163 104 280 139 360C163 415 186 433 234 433C257 433 275 429 319 414Z" stroke="rgb(0, 0, 0)" stroke-width="8" fill="rgb(0, 0, 0)" style="transform:matrix(0.017,0,0,-0.017,0,0);"></path></g><g><g><g><g style="transform:matrix(1,0,0,1,33.0390625,77.9703125);"><path d="M263 689C108 689 29 566 29 324C29 207 50 106 85 57C120 8 176 -20 238 -20C389 -20 465 110 465 366C465 585 400 689 263 689ZM245 654C342 654 381 556 381 316C381 103 343 15 251 15C154 15 113 116 113 360C113 571 150 654 245 654Z" stroke="rgb(0, 0, 0)" stroke-width="8" fill="rgb(0, 0, 0)" style="transform:matrix(0.0119,0,0,-0.0119,0,0);"></path></g></g></g></g></g></g><g><g><g><g><g><g style="transform:matrix(1,0,0,1,256.8515625,32);"><path d="M748 425C748 603 644 706 464 706C227 706 53 523 53 272C53 83 147 -18 323 -18C595 -18 748 207 748 425ZM660 409C660 221 571 24 360 24C216 24 141 110 141 277C141 425 199 664 433 664C549 664 660 610 660 409ZM1269 473L1262 482L1194 465L1184 414C1169 336 1144 268 1113 221C1054 130 976 59 936 59C928 59 923 68 923 85C923 99 925 112 930 137L987 408C990 424 992 438 992 451C992 470 983 482 969 482C949 482 911 461 837 408L809 388L816 368L848 389C876 407 887 412 896 412C905 412 913 403 913 392C913 388 912 378 911 374L848 77C846 68 844 44 844 30C844 7 859 -11 879 -11C942 -11 1063 101 1147 239L1110 97C1103 73 1099 46 1099 31C1099 6 1110 -9 1129 -9C1155 -9 1191 12 1289 85L1279 103L1253 86C1229 70 1203 59 1192 59C1184 59 1179 66 1179 76C1179 112 1254 416 1269 473ZM1457 390L1401 107C1400 99 1388 61 1388 31C1388 6 1399 -9 1418 -9C1453 -9 1488 11 1566 74L1597 99L1587 117L1542 86C1513 66 1493 56 1482 56C1473 56 1468 64 1468 76C1468 102 1482 183 1511 328L1524 390L1631 390L1642 440C1604 436 1570 434 1532 434C1548 528 1559 577 1577 631L1566 646C1546 634 1519 622 1488 610L1463 440C1419 419 1393 408 1375 403L1373 390ZM1840 -11C1896 -11 2011 62 2054 125C2095 186 2129 296 2129 371C2129 438 2106 482 2070 482C2028 482 1975 456 1923 409C1882 374 1862 348 1826 289L1850 408C1853 425 1855 440 1855 452C1855 471 1847 482 1833 482C1812 482 1774 461 1700 408L1672 388L1679 368L1711 389C1739 407 1750 412 1759 412C1769 412 1776 403 1776 389C1776 381 1774 361 1772 351L1714 8C1704 -52 1685 -143 1665 -233L1657 -270L1664 -276C1685 -269 1705 -264 1737 -259L1779 3C1800 -4 1822 -11 1840 -11ZM1807 165C1829 293 1936 424 2019 424C2045 424 2057 402 2057 356C2057 275 2017 156 1964 80C1944 51 1912 36 1871 36C1840 36 1815 43 1789 59ZM2655 473L2648 482L2580 465L2570 414C2555 336 2530 268 2499 221C2440 130 2362 59 2322 59C2314 59 2309 68 2309 85C2309 99 2311 112 2316 137L2373 408C2376 424 2378 438 2378 451C2378 470 2369 482 2355 482C2335 482 2297 461 2223 408L2195 388L2202 368L2234 389C2262 407 2273 412 2282 412C2291 412 2299 403 2299 392C2299 388 2298 378 2297 374L2234 77C2232 68 2230 44 2230 30C2230 7 2245 -11 2265 -11C2328 -11 2449 101 2533 239L2496 97C2489 73 2485 46 2485 31C2485 6 2496 -9 2515 -9C2541 -9 2577 12 2675 85L2665 103L2639 86C2615 70 2589 59 2578 59C2570 59 2565 66 2565 76C2565 112 2640 416 2655 473ZM2843 390L2787 107C2786 99 2774 61 2774 31C2774 6 2785 -9 2804 -9C2839 -9 2874 11 2952 74L2983 99L2973 117L2928 86C2899 66 2879 56 2868 56C2859 56 2854 64 2854 76C2854 102 2868 183 2897 328L2910 390L3017 390L3028 440C2990 436 2956 434 2918 434C2934 528 2945 577 2963 631L2952 646C2932 634 2905 622 2874 610L2849 440C2805 419 2779 408 2761 403L2759 390ZM3534 722L3522 733C3470 707 3434 698 3362 691L3358 670L3406 670C3430 670 3440 663 3440 646C3440 639 3439 628 3438 622L3337 71C3336 68 3336 64 3336 61C3336 22 3384 -11 3439 -11C3476 -11 3527 8 3570 39C3666 107 3732 244 3732 376C3732 414 3723 453 3711 468C3704 477 3691 482 3676 482C3652 482 3622 474 3594 460C3543 433 3510 403 3448 324ZM3621 424C3647 424 3660 401 3660 352C3660 288 3639 202 3609 137C3576 68 3536 36 3482 36C3436 36 3411 59 3411 101C3411 135 3426 276 3507 361C3540 395 3592 424 3621 424ZM3795 388L3802 368L3834 389C3871 412 3874 414 3881 414C3891 414 3899 404 3899 391C3899 384 3895 361 3891 347L3825 107C3817 76 3812 49 3812 30C3812 6 3823 -9 3842 -9C3868 -9 3904 12 4002 85L3992 103L3966 86C3937 67 3914 56 3905 56C3898 56 3892 66 3892 76C3892 86 3894 95 3899 116L3976 420C3980 437 3982 448 3982 456C3982 473 3973 482 3957 482C3935 482 3898 461 3823 408ZM3989 712C3960 712 3931 679 3931 645C3931 620 3946 604 3970 604C4001 604 4025 633 4025 671C4025 695 4010 712 3989 712ZM4163 390L4107 107C4106 99 4094 61 4094 31C4094 6 4105 -9 4124 -9C4159 -9 4194 11 4272 74L4303 99L4293 117L4248 86C4219 66 4199 56 4188 56C4179 56 4174 64 4174 76C4174 102 4188 183 4217 328L4230 390L4337 390L4348 440C4310 436 4276 434 4238 434C4254 528 4265 577 4283 631L4272 646C4252 634 4225 622 4194 610L4169 440C4125 419 4099 408 4081 403L4079 390Z" stroke="rgb(0, 0, 0)" stroke-width="8" fill="rgb(0, 0, 0)" style="transform:matrix(0.017,0,0,-0.017,0,0);"></path></g></g></g></g></g></g><g><g><g style="transform:matrix(1,0,0,1,106.1875,40);"><path d="M108 471C108 386 146 339 230 319L325 296C379 283 406 248 406 191C406 96 335 30 232 30C178 30 140 42 96 73L96 172L66 172C60 117 53 72 42 20C91 -5 144 -18 197 -18C352 -18 485 99 485 234C485 313 442 355 341 377L276 391C210 405 180 442 180 508C180 595 247 658 339 658C388 658 421 645 451 613L451 537L481 537C485 591 492 629 506 672C461 696 421 706 374 706C250 706 108 614 108 471ZM791 722L779 733C734 711 693 697 619 691L615 670L663 670C681 670 697 667 697 647C697 641 697 632 695 622L653 388C633 272 591 80 565 2L572 -9L641 7C649 64 663 164 703 236C748 317 851 414 893 414C904 414 915 407 915 393C915 375 910 342 900 303L849 107C843 85 836 55 836 31C836 6 846 -9 867 -9C899 -9 967 41 1026 85L1016 103L990 86C967 71 941 56 929 56C922 56 916 65 916 76C916 88 919 101 923 116L987 372C993 398 998 423 998 447C998 464 992 482 966 482C931 482 854 437 786 374C753 343 727 308 699 273L695 275ZM1088 388L1095 368L1127 389C1164 412 1167 414 1174 414C1184 414 1192 404 1192 391C1192 384 1188 361 1184 347L1118 107C1110 76 1105 49 1105 30C1105 6 1116 -9 1135 -9C1161 -9 1197 12 1295 85L1285 103L1259 86C1230 67 1207 56 1198 56C1191 56 1185 66 1185 76C1185 86 1187 95 1192 116L1269 420C1273 437 1275 448 1275 456C1275 473 1266 482 1250 482C1228 482 1191 461 1116 408ZM1282 712C1253 712 1224 679 1224 645C1224 620 1239 604 1263 604C1294 604 1318 633 1318 671C1318 695 1303 712 1282 712ZM1676 437L1660 437L1681 549C1697 635 1725 673 1771 673C1801 673 1828 658 1843 634L1853 638C1858 654 1868 685 1876 705L1881 720C1865 727 1834 733 1811 733C1800 733 1784 730 1776 726C1752 715 1670 654 1647 630C1625 608 1613 578 1602 521L1587 442C1546 422 1526 414 1501 405L1496 383L1577 383L1568 327C1538 132 1501 -54 1479 -123C1461 -182 1431 -213 1395 -213C1372 -213 1361 -206 1343 -184L1329 -188C1325 -211 1311 -259 1306 -268C1315 -273 1330 -276 1341 -276C1382 -276 1436 -245 1475 -198C1546 -114 1566 -18 1650 383L1754 383C1758 402 1765 425 1771 439L1767 446C1738 439 1739 437 1676 437ZM2006 390L1950 107C1949 99 1937 61 1937 31C1937 6 1948 -9 1967 -9C2002 -9 2037 11 2115 74L2146 99L2136 117L2091 86C2062 66 2042 56 2031 56C2022 56 2017 64 2017 76C2017 102 2031 183 2060 328L2073 390L2180 390L2191 440C2153 436 2119 434 2081 434C2097 528 2108 577 2126 631L2115 646C2095 634 2068 622 2037 610L2012 440C1968 419 1942 408 1924 403L1922 390Z" stroke="rgb(0, 0, 0)" stroke-width="8" fill="rgb(0, 0, 0)" style="transform:matrix(0.017,0,0,-0.017,0,0);"></path></g></g></g></svg>
</svg>
